<svg width="838" height="137" viewBox="0 0 838 137" fill="none" xmlns="http://www.w3.org/2000/svg">
<path d="M0 75.0532C0 53.9445 15.9488 38.6211 35.6503 38.6211C55.5081 38.6211 71.4569 53.9445 71.4569 75.0532C71.4569 96.1619 55.5081 111.329 35.6503 111.329C15.9488 111.329 0 96.1619 0 75.0532ZM61.7625 75.0532C61.7625 59.2608 51.13 47.0646 35.6503 47.0646C20.3269 47.0646 9.69437 59.2608 9.69437 75.0532C9.69437 90.8457 20.3269 103.042 35.6503 103.042C51.13 103.042 61.7625 90.8457 61.7625 75.0532Z" fill="black"/>
<path d="M115.106 111.329C103.379 111.329 93.0591 104.918 88.8374 96.4747V136.816H79.2994V40.4975H88.8374V53.9445C92.9028 45.3447 103.535 38.6211 115.419 38.6211C135.12 38.6211 150.131 53.9445 150.131 75.0532C150.131 96.1619 134.964 111.329 115.106 111.329ZM140.436 75.0532C140.436 59.2608 129.804 47.0646 114.481 47.0646C99.1572 47.0646 88.3683 59.2608 88.3683 75.0532C88.3683 90.8457 99.1572 103.042 114.481 103.042C129.804 103.042 140.436 90.8457 140.436 75.0532Z" fill="black"/>
<path d="M226.037 77.8677H166.307C167.558 92.0966 177.096 102.885 191.481 102.885C200.863 102.885 208.681 98.5074 212.902 91.002H224.004C218.219 103.511 205.71 111.329 191.481 111.329C171.623 111.329 156.456 96.1619 156.456 75.0532C156.456 53.9445 171.623 38.6211 191.325 38.6211C209.306 38.6211 226.037 51.2864 226.037 77.555V77.8677ZM191.325 47.0646C177.565 47.0646 168.34 56.9154 166.62 70.0497H215.404C214.31 57.5408 204.928 47.0646 191.325 47.0646Z" fill="black"/>
<path d="M282.417 109.453V64.108C282.417 53.0063 275.224 47.0646 265.374 47.0646C257.087 47.0646 248.956 51.5991 242.389 59.2608V109.453H232.851V40.4975H242.232V50.3482C248.487 42.8429 256.93 38.6211 266.937 38.6211C283.042 38.6211 291.955 48.4719 291.955 63.6389V109.453H282.417Z" fill="black"/>
<path d="M351.161 37.8393V109.453H330.834V55.039H320.827V37.8393H351.161ZM327.081 13.1343C327.081 5.94171 332.867 0 340.059 0C347.408 0 353.194 5.94171 353.194 13.1343C353.194 20.4833 347.408 26.1123 340.059 26.1123C332.867 26.1123 327.081 20.4833 327.081 13.1343Z" fill="black"/>
<path d="M386.585 46.2828C392.058 39.5593 400.189 35.963 408.476 35.963C423.955 35.963 435.057 45.8137 435.057 62.5444V109.453H414.73V67.7043C414.73 58.6353 408.945 54.8827 402.534 54.8827C396.592 54.8827 391.276 58.1663 387.367 63.0134V109.453H367.04V37.8393H386.898V40.6538C386.898 43.1556 386.585 46.2828 386.585 46.2828Z" fill="black"/>
<path d="M454.539 10.6325H474.866V37.8393H490.346V55.039H474.866V87.4057C474.866 91.9402 478.462 92.5656 481.59 92.5656C486.749 92.5656 490.971 92.0966 490.971 92.0966V109.453C490.971 109.453 481.12 110.391 475.179 110.391C465.015 110.391 454.539 108.671 454.539 94.2856V55.039H443.281V37.8393H454.539V10.6325Z" fill="black"/>
<path d="M546.72 37.5266V57.8535H538.12C527.8 57.8535 523.109 62.7007 523.109 75.2096V109.453H502.783V37.8393H522.484V49.2537C525.298 41.592 532.178 36.9012 541.091 36.9012C542.967 36.9012 544.844 37.0575 546.72 37.5266Z" fill="black"/>
<path d="M581.684 96.4747C589.033 96.4747 595.6 92.722 595.6 83.8094V78.6495C594.349 79.9004 592.16 80.2131 589.345 80.2131H581.684C575.273 80.2131 571.52 83.0276 571.52 88.0312C571.52 92.8784 575.429 96.4747 581.684 96.4747ZM595.6 62.5444V61.7626C595.6 56.6026 591.534 53.3191 583.716 53.3191C576.524 53.3191 567.455 56.9154 562.139 60.0426L554.164 44.7192C554.164 44.7192 567.455 35.963 584.811 35.963C601.072 35.963 615.927 43.4683 615.927 62.388V109.453H595.6V102.729C591.847 108.358 583.716 111.329 575.586 111.329C560.419 111.329 550.568 100.54 550.568 88.813C550.568 75.2096 560.575 66.7661 576.524 66.7661H590.596C594.036 66.7661 595.6 65.2025 595.6 62.5444Z" fill="black"/>
<path d="M650.672 46.2828C656.144 39.5593 664.275 35.963 672.562 35.963C688.042 35.963 699.144 45.8137 699.144 62.5444V109.453H678.817V67.7043C678.817 58.6353 673.031 54.8827 666.621 54.8827C660.679 54.8827 655.363 58.1663 651.454 63.0134V109.453H631.127V37.8393H650.985V40.6538C650.985 43.1556 650.672 46.2828 650.672 46.2828Z" fill="black"/>
<path d="M784.515 78.8059V79.5877H731.196C732.291 87.5621 738.545 93.9729 747.614 93.9729C753.556 93.9729 759.185 91.4711 762 86.6239L783.108 88.813C776.697 104.136 763.25 111.329 747.302 111.329C725.88 111.329 709.775 95.5365 709.775 73.646C709.775 51.7555 725.567 35.963 746.989 35.963C766.69 35.963 784.515 48.7846 784.515 78.8059ZM746.989 52.85C738.389 52.85 732.291 58.3226 730.727 65.9843H762.781C761.687 58.7917 755.589 52.85 746.989 52.85Z" fill="black"/>
<path d="M800.365 10.6325H820.692V37.8393H836.172V55.039H820.692V87.4057C820.692 91.9402 824.289 92.5656 827.416 92.5656C832.576 92.5656 836.797 92.0966 836.797 92.0966V109.453C836.797 109.453 826.947 110.391 821.005 110.391C810.841 110.391 800.365 108.671 800.365 94.2856V55.039H789.107V37.8393H800.365V10.6325Z" fill="black"/>
</svg>
